<svg width="23" height="23" viewBox="0 0 23 23" fill="none" xmlns="http://www.w3.org/2000/svg"><path clip-rule="evenodd" d="M1.438 7.969a1.5 1.5 0 0 1 1.5-1.5h17.125a1.5 1.5 0 0 1 1.5 1.5V20.78a1.5 1.5 0 0 1-1.5 1.5H2.938a1.5 1.5 0 0 1-1.5-1.5V7.97z" stroke="#7B7B8E" stroke-linecap="round" stroke-linejoin="round"/><path d="M21.37 7.188l-2.3-5.615a1.437 1.437 0 0 0-1.316-.854H5.247a1.437 1.437 0 0 0-1.318.854l-2.3 5.615m9.871-.719V.719m2.156 17.25h4.313" stroke="#7B7B8E" stroke-linecap="round" stroke-linejoin="round"/></svg>